{"title":"Blackhat 2015 720p HDCAM V2 [NEW SOURCE] x264 Pimp4003","uid":11692204,"size":2318767540,"categoryP":"video","categoryS":"movies","magnet":"?xt=urn:btih:fd13a24b2f5c8f913b23fc4f5c7c3efea876caa6&amp;dn=Blackhat+2015+720p+HDCAM+V2+%5BNEW+SOURCE%5D+x264+Pimp4003&amp;tr=udp%3A%2F%2Ftracker.openbittorrent.com%3A80&amp;tr=udp%3A%2F%2Fopen.demonii.com%3A1337&amp;tr=udp%3A%2F%2Ftracker.coppersurfer.tk%3A6969&amp;tr=udp%3A%2F%2Fexodus.desync.com%3A6969","seeders":14,"leechers":0,"uploader":"shawnmurthy","files":1,"time":1423587055,"description":"SOURCE IS PIMP4003....NEW SOURCE V2 720P HDCAM...VIDEOON THIS IS MUCH BETTER THEN MY FIRST ONE SINCE MOST OF THE MOVIE IS DARK IN THIS ONE YOU CAN SEE BETTER...AUDIO IS BETTER AS WELL.....PRETTY GOOD...ENJOY...PIMP4003 OUT\n\nSCREENSHOTS GO HERE...pimp4003 dot net/torrents.php?id=fd13a24b2f5c8f913b23fc4f5c7c3efea876caa6\n &lt;a href=&quot;\nhttp://i.imgur.com/J3ny9bJ.jpg&quot; rel=&quot;nofollow&quot; target=&quot;_NEW&quot;&gt;\nhttp://i.imgur.com/J3ny9bJ.jpg&lt;/a&gt;\n &lt;a href=&quot;\nhttp://i.imgur.com/SpsuXOR.png&quot; rel=&quot;nofollow&quot; target=&quot;_NEW&quot;&gt;\nhttp://i.imgur.com/SpsuXOR.png&lt;/a&gt;\n\nPIMP THE ONE AND ONLY PIMPSTER.....PRESENTS\n\nfacebook DOT com/OfficialPimp4003\n &lt;a href=&quot;\nhttp://i.imgur.com/j5fHFJa.jpg&quot; rel=&quot;nofollow&quot; target=&quot;_NEW&quot;&gt;\nhttp://i.imgur.com/j5fHFJa.jpg&lt;/a&gt;\n\nBlackhat 2015 720p HDCAM V2 [NEW SOURCE] x264 Pimp4003\n &lt;a href=&quot;\nhttp://www.imdb.com/title/tt2717822/&quot; rel=&quot;nofollow&quot; target=&quot;_NEW&quot;&gt;\nhttp://www.imdb.com/title/tt2717822/&lt;/a&gt;\n\nA furloughed convict and his American and Chinese partners hunt a high-level cybercrime network from Chicago to Los Angeles to Hong Kong to Jakarta.\n\nDirector: Michael Mann\n\nWriter: Morgan Davis Foehl\n\nStars: Chris Hemsworth, Viola Davis, Wei Tang |See full cast and crew Â»\n\nVideo\nID                                       : 1\nFormat                                   : MPEG-4 Visual\nFormat profile                           : Simple@L3\nFormat settings, BVOP                    : No\nFormat settings, QPel                    : No\nFormat settings, GMC                     : No warppoints\nFormat settings, Matrix                  : Default (H.263)\nCodec ID                                 : 20\nDuration                                 : 2h 6mn\nBit rate                                 : 2 360 Kbps\nWidth                                    : 1 280 pixels\nHeight                                   : 536 pixels\nDisplay aspect ratio                     : 2.40:1\nFrame rate mode                          : Variable\nFrame rate                               : 59.940 fps\nMinimum frame rate                       : 59.916 fps\nMaximum frame rate                       : 60.157 fps\nColor space                              : YUV\nChroma subsampling                       : 4:2:0\nBit depth                                : 8 bits\nScan type                                : Progressive\nCompression mode                         : Lossy\nBits/(Pixel*Frame)                       : 0.057\nStream size                              : 2.08 GiB (96%)\nWriting library                          : ZJMedia MPEG Encoder\n\nAudio\nID                                       : 2\nFormat                                   : AAC\nFormat/Info                              : Advanced Audio Codec\nFormat profile                           : LC\nCodec ID                                 : 40\nDuration                                 : 2h 6mn\nBit rate mode                            : Variable\nBit rate                                 : 80.5 Kbps\nChannel(s)                               : 2 channels\nChannel positions                        : Front: L R\nSampling rate                            : 48.0 KHz\nCompression mode                         : Lossy\nStream size                              : 72.7 MiB (3%)","torrent":{"xt":"urn:btih:fd13a24b2f5c8f913b23fc4f5c7c3efea876caa6","amp;dn":"Blackhat+2015+720p+HDCAM+V2+%5BNEW+SOURCE%5D+x264+Pimp4003","amp;tr":["udp%3A%2F%2Ftracker.openbittorrent.com%3A80","udp%3A%2F%2Fopen.demonii.com%3A1337","udp%3A%2F%2Ftracker.coppersurfer.tk%3A6969","udp%3A%2F%2Fexodus.desync.com%3A6969"],"infoHash":"fd13a24b2f5c8f913b23fc4f5c7c3efea876caa6","infoHashBuffer":{"type":"Buffer","data":[253,19,162,75,47,92,143,145,59,35,252,79,92,124,62,254,168,118,202,166]},"announce":[],"urlList":[]}}